<svg width="196" height="78" viewBox="0 0 196 78" fill="none" xmlns="http://www.w3.org/2000/svg">
<path id="Vector" d="M1.0409 77.0768C0.85451 77.0768 0.668141 77.0768 0.48175 77.0768C9.13029 50.342 21.5439 29.4158 46.2594 15.0802C68.328 2.27134 94.982 -3.165 120.145 1.86175C156.715 9.15985 188.327 39.1714 195.335 75.7736C182.697 76.2949 171.477 67.768 162.977 58.3848C151.123 45.3152 148.961 39.0969 136.622 31.2403C120.555 20.9634 102.736 22.3039 96.3985 22.7879C67.8061 24.9476 50.3972 43.0439 47.2286 46.4695C36.6788 57.8262 32.1682 69.8904 30.1924 76.7045C20.4628 76.8162 10.7705 76.9651 1.0409 77.0768Z" fill="#9977B4"/>
</svg>
